<svg width="261" height="56" viewBox="0 0 261 56" fill="none" xmlns="http://www.w3.org/2000/svg">
<rect width="261" height="56" fill="#262626"/>
<path d="M21.0943 51.0769V15.2747H7V4.92308H48.103V15.2747H34.0742V51.0769H21.0943Z" fill="#AEFD71"/>
<path d="M75.1772 52C71.5498 52 68.1847 51.4286 65.0817 50.2857C62.0225 49.0989 59.3566 47.4286 57.084 45.2747C54.8551 43.1209 53.107 40.5934 51.8396 37.6923C50.5722 34.7473 49.9385 31.5165 49.9385 28C49.9385 24.4835 50.5722 21.2747 51.8396 18.3736C53.107 15.4286 54.8551 12.8791 57.084 10.7253C59.3566 8.57143 62.0225 6.92308 65.0817 5.78022C68.1847 4.59341 71.5498 4 75.1772 4C79.4164 4 83.1968 4.74725 86.5182 6.24176C89.8834 7.73626 92.6804 9.89011 94.9092 12.7033L86.6493 20.2198C85.1634 18.4615 83.5245 17.1209 81.7327 16.1978C79.9846 15.2747 78.0179 14.8132 75.8327 14.8132C73.9535 14.8132 72.2272 15.1209 70.6539 15.7363C69.0806 16.3516 67.7258 17.2527 66.5895 18.4396C65.4969 19.5824 64.6228 20.967 63.9673 22.5934C63.3554 24.2198 63.0495 26.022 63.0495 28C63.0495 29.978 63.3554 31.7802 63.9673 33.4066C64.6228 35.033 65.4969 36.4396 66.5895 37.6264C67.7258 38.7692 69.0806 39.6484 70.6539 40.2637C72.2272 40.8791 73.9535 41.1868 75.8327 41.1868C78.0179 41.1868 79.9846 40.7253 81.7327 39.8022C83.5245 38.8791 85.1634 37.5385 86.6493 35.7802L94.9092 43.2967C92.6804 46.0659 89.8834 48.2198 86.5182 49.7582C83.1968 51.2527 79.4164 52 75.1772 52Z" fill="#AEFD71"/>
<path d="M169.845 4.92308H182.825V51.0769H169.845V4.92308ZM113.676 51.0769H100.697V4.92308H113.676V51.0769ZM170.763 33.0769H112.759V22.2637H170.763V33.0769Z" fill="#AEFD71"/>
<path d="M203.911 22.7912H250.228V32.5494H203.911V22.7912ZM204.829 40.989H253.833V51.0769H191.98V4.92308H252.981V15.011H204.829V40.989Z" fill="#AEFD71"/>
</svg>
