<?xml version="1.0" encoding="utf-8"?>
<!-- Generator: Adobe Illustrator 22.1.0, SVG Export Plug-In . SVG Version: 6.00 Build 0)  -->
<svg version="1.1" id="Layer_1" xmlns="http://www.w3.org/2000/svg" xmlns:xlink="http://www.w3.org/1999/xlink" x="0px" y="0px"
	 viewBox="0 0 512 512" style="enable-background:new 0 0 512 512;" xml:space="preserve">
<style type="text/css">
	.st0{fill:#FFFFFF;}
</style>
<g>
	<path class="st0" d="M179.8,332.1c10.4,10.4,27.4,10.4,37.9,0l113.6-113.6c10.4-10.4,10.4-27.4,0-37.9c-10.4-10.4-27.4-10.4-37.9,0
		L179.8,294.3C169.4,304.7,169.4,321.7,179.8,332.1z"/>
	<path class="st0" d="M274.5,389l-33.9,33.9c-39.2,41.4-103.6,46.2-148.5,10.9c-45.6-37.8-51.8-105.3-14-150.9
		c2.2-2.7,4.6-5.2,7-7.7l37.9-37.9c10.4-10.4,10.4-27.4,0-37.9s-27.4-10.4-37.9,0l-33.9,33.9c-58.8,57.3-66.6,149.1-17.9,215.4
		c54,70.5,154.8,83.9,225.3,29.9c5.6-4.3,10.9-9,16-14l37.9-37.9c10.4-10.4,10.4-27.4,0-37.9C301.9,378.6,285,378.6,274.5,389z"/>
	<path class="st0" d="M449.6,33.7c-67-49.4-160.1-41.2-217.5,18.9l-28.6,28.6c-15.3,15.3-15.1,32.2-4.7,42.6
		c10.4,10.4,27.4,10.4,37.9,0l33.9-33.9C309.8,48.5,374.1,43.7,419,78.9c45.6,37.8,51.8,105.3,14,150.9c-2.2,2.7-4.6,5.2-7,7.7
		l-37.9,37.9c-10.4,10.4-10.4,27.4,0,37.9c10.4,10.4,27.4,10.4,37.9,0l37.9-37.9c63.2-62.2,64.1-164,1.8-227.3
		C460.7,43,455.3,38.1,449.6,33.7z"/>
</g>
</svg>
